<svg id="svg" version="1.1" xmlns="http://www.w3.org/2000/svg" xmlns:xlink="http://www.w3.org/1999/xlink" width="400" height="116.70902160101652" viewBox="0, 0, 400,116.70902160101652"><g id="svgg"><path id="path0" d="M356.925 3.958 C 356.779 4.485,356.401 5.704,356.086 6.667 C 355.546 8.317,355.322 8.930,354.488 11.042 C 354.297 11.523,354.078 12.104,354.000 12.333 C 353.922 12.563,353.697 13.162,353.500 13.667 C 353.303 14.171,353.078 14.771,353.000 15.000 C 352.922 15.229,352.697 15.829,352.500 16.333 C 351.864 17.962,350.237 22.500,349.514 24.667 C 349.254 25.446,348.961 26.271,348.864 26.500 C 348.767 26.729,348.336 28.042,347.906 29.417 C 347.476 30.792,346.987 32.329,346.819 32.833 C 346.651 33.337,346.277 34.535,345.988 35.495 C 345.699 36.455,345.368 37.318,345.252 37.412 C 345.136 37.506,344.910 37.958,344.750 38.417 C 344.590 38.875,344.318 39.568,344.146 39.957 C 343.974 40.345,343.833 40.706,343.833 40.759 C 343.833 41.667,341.417 45.460,339.911 46.917 C 338.164 48.607,337.180 48.672,336.717 47.126 C 335.948 44.555,337.017 40.551,339.955 35.000 C 343.190 28.886,343.339 28.415,342.477 27.000 C 341.931 26.103,339.642 24.000,339.212 24.000 C 339.118 24.000,338.954 23.896,338.849 23.768 C 338.457 23.296,337.834 23.336,337.617 23.848 L 337.417 24.319 336.667 23.909 C 334.405 22.673,333.323 22.409,331.167 22.564 C 328.904 22.727,327.469 23.206,325.667 24.398 C 321.027 27.468,318.050 32.460,317.594 37.936 C 317.229 42.313,312.501 49.193,310.568 48.159 C 309.471 47.571,309.429 42.045,310.513 40.925 C 310.598 40.838,310.667 40.650,310.668 40.508 C 310.669 40.366,311.738 38.112,313.043 35.500 C 316.905 27.772,316.895 27.040,312.898 24.295 C 311.262 23.173,311.058 23.183,310.545 24.417 C 310.317 24.967,310.025 25.660,309.898 25.958 C 309.771 26.256,309.564 26.744,309.439 27.042 C 309.314 27.340,309.007 28.023,308.758 28.561 C 308.141 29.890,307.193 32.105,306.894 32.917 C 306.302 34.523,305.510 37.031,305.412 37.615 C 305.076 39.607,302.725 44.159,302.028 44.168 C 301.967 44.169,301.651 44.413,301.327 44.710 C 299.729 46.172,297.831 46.578,297.104 45.613 C 295.850 43.946,296.991 39.595,300.346 33.250 C 304.337 25.702,304.670 24.800,303.985 23.386 C 303.617 22.625,301.520 20.333,301.193 20.333 C 301.087 20.333,301.000 20.270,301.000 20.192 C 301.000 20.038,299.698 19.405,299.608 19.516 C 299.533 19.608,296.333 26.164,296.159 26.583 C 296.083 26.767,295.744 27.554,295.407 28.333 C 295.070 29.113,294.734 29.938,294.660 30.167 C 294.586 30.396,294.365 30.996,294.170 31.500 C 292.330 36.256,291.710 39.644,292.002 43.357 C 292.131 45.002,292.893 47.072,293.448 47.285 C 293.568 47.331,293.669 47.455,293.672 47.559 C 293.702 48.661,297.497 49.715,298.843 48.995 C 299.021 48.900,299.167 48.869,299.167 48.927 C 299.167 49.072,301.007 48.035,301.417 47.658 C 302.401 46.755,302.991 46.109,303.667 45.195 C 304.591 43.945,304.833 43.897,304.833 44.964 C 304.833 48.864,308.927 52.190,312.021 50.805 C 313.223 50.267,316.000 47.423,316.000 46.731 C 316.000 46.664,316.106 46.491,316.236 46.346 C 316.365 46.202,316.801 45.430,317.204 44.631 L 317.938 43.179 318.158 43.798 C 319.380 47.219,320.980 48.750,323.782 49.179 C 326.545 49.602,329.047 48.785,330.909 46.851 C 331.747 45.981,331.699 45.965,332.252 47.292 C 334.197 51.959,338.572 52.490,341.682 48.436 C 342.042 47.967,342.395 47.508,342.468 47.417 C 342.540 47.325,342.785 46.938,343.013 46.556 L 343.425 45.863 343.360 48.083 C 343.278 50.899,343.720 52.095,345.170 52.978 C 347.095 54.152,349.276 52.701,352.527 48.083 C 353.376 46.877,355.612 44.562,356.427 44.045 C 360.202 41.652,364.880 40.356,368.372 40.737 C 368.946 40.799,369.792 40.893,370.250 40.944 C 370.708 40.996,371.336 41.142,371.645 41.269 C 371.954 41.396,372.314 41.500,372.445 41.500 C 373.885 41.500,379.147 45.278,380.890 47.563 C 381.131 47.879,381.427 48.238,381.547 48.361 C 381.801 48.619,382.832 50.095,383.099 50.583 C 383.199 50.767,383.517 51.348,383.805 51.874 C 384.093 52.401,384.520 53.301,384.755 53.874 C 384.990 54.448,385.251 55.067,385.335 55.250 C 385.846 56.359,386.318 58.359,386.576 60.500 C 386.699 61.526,386.456 61.910,385.083 62.849 C 384.442 63.289,383.842 63.709,383.750 63.783 C 383.225 64.210,378.870 66.278,377.667 66.672 C 377.438 66.747,376.631 67.033,375.875 67.307 C 375.119 67.581,374.500 67.776,374.500 67.740 C 374.500 67.704,374.294 67.755,374.042 67.852 C 372.760 68.348,369.162 69.255,365.250 70.069 C 359.976 71.167,351.470 72.220,344.917 72.588 C 344.000 72.639,342.988 72.709,342.667 72.744 C 339.822 73.047,325.122 73.514,321.500 73.415 C 318.790 73.341,316.527 73.296,304.333 73.075 C 301.813 73.029,297.987 72.885,295.833 72.754 C 293.679 72.623,290.841 72.469,289.527 72.412 C 288.212 72.355,286.987 72.280,286.804 72.244 C 286.621 72.209,285.446 72.136,284.194 72.081 C 282.941 72.026,281.054 71.907,280.000 71.815 C 278.946 71.724,276.921 71.583,275.500 71.502 C 274.079 71.421,271.454 71.238,269.667 71.095 C 264.980 70.720,262.095 70.501,260.667 70.413 C 259.220 70.323,254.563 69.931,250.833 69.584 C 249.412 69.452,247.612 69.294,246.833 69.233 C 246.054 69.171,245.192 69.092,244.917 69.057 C 244.642 69.022,243.629 68.925,242.667 68.841 C 241.704 68.757,240.392 68.613,239.750 68.521 C 239.108 68.429,237.683 68.268,236.583 68.163 C 235.483 68.059,234.321 67.940,234.000 67.898 C 233.679 67.857,232.704 67.755,231.833 67.671 C 230.963 67.587,229.725 67.443,229.083 67.351 C 228.442 67.259,227.299 67.148,226.543 67.103 C 225.788 67.058,225.113 66.988,225.043 66.946 C 224.974 66.905,224.392 66.824,223.750 66.765 C 223.108 66.707,221.646 66.549,220.500 66.414 C 218.220 66.145,213.565 65.592,211.333 65.325 C 210.554 65.232,209.467 65.121,208.917 65.078 C 208.367 65.036,207.092 64.893,206.083 64.761 C 204.360 64.536,202.890 64.369,197.125 63.742 C 193.939 63.396,191.824 63.154,191.405 63.087 C 191.215 63.057,190.540 62.984,189.905 62.924 C 189.270 62.865,187.813 62.711,186.667 62.583 C 183.408 62.220,179.680 61.843,178.583 61.766 C 178.033 61.727,176.871 61.617,176.000 61.521 C 172.697 61.157,170.708 60.964,169.500 60.892 C 168.813 60.850,167.387 60.712,166.333 60.584 C 165.279 60.456,163.817 60.307,163.083 60.253 C 162.350 60.198,160.512 60.049,159.000 59.920 C 157.487 59.792,154.750 59.568,152.917 59.423 C 151.083 59.278,148.721 59.083,147.667 58.989 C 146.612 58.895,144.925 58.780,143.917 58.733 C 142.908 58.685,141.258 58.574,140.250 58.486 C 139.242 58.397,136.804 58.246,134.833 58.148 C 132.862 58.051,131.025 57.946,130.750 57.916 C 130.475 57.885,130.194 57.854,130.125 57.847 C 129.837 57.816,129.974 57.479,132.001 53.250 C 132.528 52.150,133.223 50.688,133.546 50.000 C 134.199 48.605,135.163 46.571,136.587 43.583 C 137.111 42.483,137.803 41.021,138.124 40.333 C 140.584 35.065,141.020 34.311,142.359 33.011 C 143.153 32.241,145.252 30.835,145.612 30.832 C 145.688 30.832,145.944 30.730,146.182 30.606 C 146.420 30.482,146.907 30.325,147.264 30.258 C 147.622 30.191,147.990 30.089,148.082 30.031 C 148.775 29.598,150.644 29.683,150.747 30.153 C 150.840 30.580,150.393 33.032,149.997 34.270 C 149.479 35.885,149.145 36.870,148.575 38.458 L 147.963 40.167 146.517 40.167 C 139.433 40.167,135.420 42.961,136.770 46.953 C 138.475 51.994,147.067 50.208,151.222 43.948 L 151.847 43.007 152.882 43.103 C 153.451 43.157,154.179 43.265,154.500 43.345 C 154.821 43.424,155.496 43.536,156.000 43.593 C 156.504 43.651,157.238 43.767,157.632 43.851 C 158.499 44.037,159.000 43.822,159.000 43.265 C 159.000 42.701,158.716 42.534,156.974 42.073 C 152.280 40.830,152.727 41.143,153.417 39.583 C 158.598 27.868,154.805 20.309,145.896 24.596 C 144.452 25.290,144.633 25.301,144.098 24.493 C 142.578 22.195,139.018 20.089,139.003 21.478 C 139.000 21.746,138.551 23.183,138.227 23.964 C 138.102 24.265,138.000 24.629,138.000 24.772 C 138.000 24.916,137.896 25.269,137.769 25.558 C 137.642 25.847,136.919 27.996,136.163 30.333 C 132.070 42.980,131.900 43.344,129.240 45.131 C 127.186 46.512,126.162 45.953,126.171 43.453 C 126.179 40.975,126.923 38.974,130.349 32.220 C 133.436 26.133,133.928 24.643,133.267 23.367 C 133.055 22.958,130.456 20.333,130.263 20.333 C 130.218 20.333,129.904 20.145,129.564 19.914 L 128.946 19.495 128.579 20.539 C 128.136 21.799,127.126 23.624,126.664 24.000 C 126.607 24.046,126.229 24.533,125.822 25.083 C 125.416 25.633,124.954 26.227,124.795 26.403 C 124.637 26.578,124.299 27.028,124.046 27.403 C 123.792 27.777,123.241 28.533,122.821 29.083 C 122.401 29.633,121.613 30.758,121.070 31.583 C 120.527 32.408,120.027 33.108,119.958 33.139 C 119.890 33.169,119.833 33.258,119.833 33.335 C 119.833 33.412,119.458 34.042,119.000 34.734 C 118.542 35.426,118.167 36.063,118.167 36.149 C 118.167 36.235,118.109 36.331,118.039 36.361 C 117.902 36.421,116.667 38.457,116.667 38.624 C 116.667 38.679,116.560 38.842,116.430 38.987 C 116.300 39.132,115.981 39.651,115.721 40.142 C 115.462 40.633,115.175 41.159,115.083 41.312 C 114.992 41.465,114.704 41.951,114.444 42.391 C 113.796 43.489,113.760 43.318,114.236 41.399 C 114.775 39.224,116.739 34.546,117.342 34.000 C 117.536 33.825,120.519 27.879,121.090 26.528 C 122.018 24.338,121.176 22.564,118.140 20.314 C 117.013 19.478,116.667 19.404,116.667 20.000 C 116.667 20.173,116.604 20.352,116.528 20.399 C 116.452 20.446,116.026 21.220,115.581 22.117 C 114.825 23.646,113.434 25.980,113.169 26.167 C 112.996 26.289,110.052 30.510,109.799 31.000 C 109.680 31.229,109.526 31.492,109.455 31.583 C 109.222 31.886,108.000 33.843,108.000 33.914 C 108.000 33.952,107.775 34.317,107.500 34.724 C 107.225 35.132,107.000 35.514,107.000 35.574 C 107.000 35.634,106.737 36.093,106.417 36.595 C 106.096 37.096,105.833 37.539,105.833 37.579 C 105.833 37.619,105.619 38.015,105.357 38.460 C 105.095 38.904,104.675 39.639,104.423 40.092 C 102.836 42.949,102.755 43.076,102.696 42.777 C 102.486 41.701,104.311 36.816,106.534 32.500 C 107.773 30.095,107.600 30.409,109.286 27.500 C 111.111 24.351,111.219 24.096,110.865 23.791 C 110.204 23.224,105.903 21.333,105.273 21.333 C 104.763 21.333,102.666 24.975,101.413 28.037 C 101.178 28.612,100.920 29.233,100.840 29.417 C 100.705 29.728,100.233 30.989,99.747 32.333 C 99.204 33.836,98.607 36.264,98.249 38.417 C 97.751 41.418,97.447 41.831,94.000 44.191 C 87.724 48.489,83.340 48.197,81.070 43.332 C 80.484 42.077,80.274 40.556,80.490 39.143 C 80.792 37.166,80.829 37.116,81.684 37.562 C 85.416 39.509,92.448 37.109,94.782 33.091 C 98.617 26.489,94.640 20.479,87.580 22.207 C 82.968 23.336,78.078 29.121,76.990 34.735 C 76.535 37.087,76.354 37.214,73.191 37.393 C 71.403 37.494,71.467 37.591,72.163 35.833 C 72.362 35.329,72.584 34.728,72.656 34.498 C 72.728 34.268,72.985 33.647,73.227 33.119 C 73.468 32.591,73.860 31.692,74.098 31.121 C 74.506 30.141,75.931 26.840,76.416 25.750 C 80.474 16.631,80.738 15.503,79.216 13.818 C 78.370 12.881,75.615 11.425,74.064 11.094 L 73.545 10.983 73.431 11.867 C 73.277 13.063,72.568 15.452,71.662 17.833 C 71.470 18.337,71.021 19.612,70.664 20.667 C 70.307 21.721,69.797 23.221,69.530 24.000 C 69.263 24.779,68.916 25.867,68.759 26.417 C 68.601 26.967,68.369 27.754,68.242 28.167 C 67.610 30.215,67.322 31.268,66.827 33.333 C 65.928 37.086,65.993 36.925,65.417 36.864 C 64.618 36.779,62.872 36.239,60.167 35.239 C 57.983 34.432,55.140 32.714,55.356 32.332 C 55.812 31.529,58.174 26.169,61.451 18.500 C 62.137 16.896,62.916 15.114,63.182 14.541 C 63.449 13.968,63.667 13.443,63.668 13.375 C 63.668 13.306,63.765 13.063,63.882 12.833 C 65.616 9.455,64.909 6.994,61.762 5.447 C 59.471 4.321,58.833 4.177,58.833 4.787 C 58.833 4.934,58.714 5.473,58.568 5.985 C 58.422 6.498,58.187 7.329,58.046 7.833 C 57.781 8.778,57.638 9.202,57.007 10.917 C 56.387 12.603,55.372 15.219,54.843 16.500 C 54.417 17.528,53.513 19.791,53.245 20.500 C 52.859 21.517,51.656 24.570,51.503 24.917 C 51.423 25.100,51.208 25.662,51.027 26.167 C 50.845 26.671,50.540 27.446,50.348 27.889 L 50.000 28.695 49.125 28.061 C 48.644 27.713,48.212 27.386,48.167 27.335 C 48.121 27.283,47.746 26.983,47.333 26.667 C 46.921 26.351,46.546 26.052,46.500 26.004 C 45.386 24.827,37.759 19.279,35.333 17.880 C 24.974 11.907,14.337 14.455,9.783 24.000 C 7.281 29.244,6.707 37.391,8.503 42.167 C 8.693 42.671,8.894 43.227,8.951 43.402 C 9.697 45.724,12.447 49.071,15.000 50.765 C 16.233 51.584,18.324 52.667,18.671 52.667 C 18.770 52.667,19.061 52.776,19.319 52.909 C 19.577 53.043,19.967 53.186,20.186 53.227 C 20.404 53.269,20.773 53.376,21.004 53.466 C 24.100 54.670,33.574 54.669,35.890 53.465 C 36.058 53.378,36.388 53.271,36.622 53.229 C 41.022 52.431,48.582 45.490,51.392 39.667 C 51.459 39.529,51.604 39.265,51.715 39.079 C 51.826 38.894,52.429 37.863,53.055 36.788 C 53.681 35.713,54.210 34.833,54.231 34.833 C 54.253 34.833,55.278 35.352,56.510 35.985 C 59.269 37.403,61.199 38.197,62.833 38.585 C 63.521 38.748,64.365 38.948,64.708 39.030 C 65.466 39.211,65.482 39.365,65.015 42.083 C 64.135 47.212,64.391 47.984,67.358 49.163 C 68.571 49.645,68.541 49.678,68.820 47.537 C 69.088 45.474,69.528 43.631,70.449 40.708 C 70.880 39.340,71.017 39.191,71.728 39.320 C 71.807 39.334,72.482 39.234,73.228 39.096 C 73.973 38.958,74.823 38.805,75.116 38.755 C 75.410 38.706,75.841 38.592,76.075 38.503 L 76.500 38.342 76.500 39.802 C 76.500 40.606,76.612 41.695,76.750 42.223 C 76.887 42.751,77.000 43.299,77.000 43.441 C 77.000 44.184,78.435 46.588,79.569 47.743 C 83.857 52.112,92.326 50.479,97.032 44.374 L 97.750 43.443 97.867 44.490 C 98.288 48.263,100.284 50.077,102.863 49.032 C 103.810 48.648,106.533 43.855,108.822 38.543 C 109.681 36.550,109.816 36.490,109.408 38.283 C 108.491 42.304,109.240 47.646,110.880 48.782 C 112.059 49.599,114.391 49.504,115.244 48.603 C 115.570 48.260,116.000 47.514,115.998 47.298 C 115.995 47.076,122.869 33.313,122.944 33.389 C 122.967 33.412,122.775 34.140,122.516 35.007 C 120.481 41.830,121.228 47.110,124.455 48.718 C 125.928 49.452,127.939 49.422,129.022 48.651 C 129.268 48.476,129.527 48.333,129.598 48.333 C 129.670 48.333,129.914 48.165,130.141 47.958 C 130.397 47.725,130.520 47.678,130.465 47.833 C 130.417 47.971,130.179 48.758,129.936 49.583 C 129.692 50.408,129.231 51.908,128.910 52.917 C 128.206 55.125,127.934 56.018,127.676 56.969 L 127.480 57.688 125.032 57.594 C 119.972 57.399,117.897 57.300,117.250 57.223 C 115.602 57.028,87.331 56.970,83.302 57.154 C 76.351 57.472,75.819 57.497,74.067 57.593 C 73.141 57.644,72.091 57.722,71.733 57.767 C 70.472 57.925,69.734 57.992,68.250 58.086 C 65.368 58.267,57.713 59.236,53.583 59.942 C 50.137 60.531,45.363 61.576,43.716 62.101 C 43.331 62.223,42.844 62.355,42.633 62.394 C 42.140 62.485,40.539 62.976,40.000 63.202 C 39.771 63.298,39.358 63.435,39.083 63.507 C 38.808 63.579,38.171 63.800,37.667 63.998 C 37.162 64.196,36.563 64.419,36.333 64.492 C 34.467 65.091,28.368 68.236,28.194 68.688 C 28.164 68.768,28.066 68.833,27.976 68.833 C 27.419 68.833,24.028 71.815,22.384 73.750 C 21.227 75.111,17.167 80.960,17.167 81.265 C 17.167 81.334,17.062 81.509,16.933 81.654 C 16.273 82.398,12.523 89.909,11.923 91.686 C 9.415 99.125,10.801 104.662,16.170 108.656 C 22.956 113.704,36.739 115.145,48.750 112.063 C 49.982 111.747,52.712 110.904,53.500 110.596 C 57.205 109.149,59.333 107.952,59.333 107.317 C 59.333 107.251,60.162 105.790,61.174 104.071 C 64.418 98.561,64.480 97.958,61.667 99.274 C 60.979 99.596,60.267 99.920,60.083 99.995 C 59.900 100.070,59.281 100.324,58.708 100.561 C 58.135 100.797,57.667 100.953,57.667 100.908 C 57.667 100.862,57.450 100.937,57.186 101.073 C 56.922 101.210,56.462 101.365,56.163 101.417 C 55.865 101.470,55.493 101.581,55.336 101.665 C 55.180 101.749,54.871 101.857,54.651 101.905 C 49.005 103.145,47.288 103.395,43.167 103.578 C 37.349 103.836,28.946 102.361,25.396 100.459 C 25.110 100.305,24.839 100.216,24.795 100.261 C 24.750 100.305,24.619 100.227,24.503 100.087 C 24.387 99.948,24.232 99.833,24.158 99.833 C 23.509 99.833,19.805 96.730,18.787 95.333 C 15.933 91.417,15.922 85.253,18.764 82.188 C 18.986 81.949,19.167 81.696,19.167 81.627 C 19.167 81.557,19.275 81.500,19.408 81.500 C 19.541 81.500,19.710 81.399,19.783 81.275 C 20.075 80.782,23.299 78.469,25.417 77.232 C 27.999 75.724,32.780 73.822,36.667 72.757 C 37.262 72.594,38.094 72.355,38.514 72.226 C 38.935 72.097,39.460 71.958,39.681 71.917 C 39.902 71.876,40.533 71.731,41.083 71.596 C 43.876 70.908,48.315 70.018,50.250 69.758 C 50.617 69.709,51.404 69.595,52.000 69.504 C 57.619 68.650,66.656 67.825,73.000 67.586 C 74.329 67.535,76.542 67.420,77.917 67.328 C 79.292 67.237,86.042 67.160,92.917 67.158 C 104.276 67.154,108.000 67.208,110.917 67.419 C 111.467 67.459,113.379 67.531,115.167 67.579 C 118.206 67.661,120.725 67.798,130.750 68.426 C 134.948 68.689,139.237 68.997,140.083 69.098 C 140.358 69.130,141.258 69.200,142.083 69.253 C 142.908 69.305,144.858 69.454,146.417 69.583 C 147.975 69.712,150.712 69.937,152.500 70.083 C 154.287 70.229,156.912 70.453,158.333 70.582 C 159.754 70.710,162.267 70.937,163.917 71.085 C 165.567 71.233,167.892 71.464,169.083 71.599 C 170.275 71.734,171.813 71.882,172.500 71.929 C 173.188 71.976,174.557 72.123,175.543 72.257 C 176.530 72.390,177.392 72.484,177.460 72.466 C 177.567 72.438,179.963 72.662,180.667 72.765 C 180.804 72.786,181.367 72.848,181.917 72.905 C 187.725 73.503,191.912 73.950,193.917 74.187 C 194.742 74.285,195.867 74.400,196.417 74.444 C 196.967 74.487,198.167 74.627,199.083 74.753 C 200.000 74.880,201.237 75.029,201.833 75.083 C 202.429 75.138,203.817 75.289,204.917 75.418 C 206.017 75.547,208.004 75.773,209.333 75.921 C 210.662 76.068,212.612 76.293,213.667 76.420 C 214.721 76.547,216.071 76.692,216.667 76.743 C 217.262 76.794,217.938 76.873,218.167 76.920 C 218.396 76.966,219.108 77.045,219.750 77.096 C 220.392 77.146,221.679 77.294,222.611 77.424 C 223.542 77.554,224.892 77.705,225.611 77.758 C 226.329 77.812,227.367 77.923,227.917 78.004 C 228.467 78.086,229.479 78.197,230.167 78.250 C 230.854 78.303,232.354 78.452,233.500 78.581 C 234.646 78.710,236.933 78.935,238.583 79.081 C 240.233 79.226,242.708 79.456,244.083 79.591 C 245.458 79.726,246.958 79.837,247.417 79.837 C 247.875 79.836,249.188 79.946,250.333 80.079 C 251.479 80.213,253.054 80.362,253.833 80.411 C 254.612 80.460,256.450 80.610,257.917 80.745 C 264.549 81.354,275.084 82.098,285.333 82.681 C 287.121 82.783,288.996 82.894,289.500 82.928 C 290.004 82.962,291.767 83.032,293.417 83.082 C 295.067 83.133,298.779 83.256,301.667 83.355 C 308.503 83.591,325.934 83.593,329.667 83.358 C 331.271 83.257,333.371 83.137,334.333 83.091 C 336.051 83.009,339.548 82.739,345.333 82.241 C 350.207 81.821,353.935 81.350,357.250 80.734 C 357.983 80.597,358.771 80.453,359.000 80.413 C 362.854 79.737,365.861 78.971,369.750 77.673 C 373.291 76.491,373.745 76.308,376.417 74.983 C 377.815 74.289,377.975 74.199,379.133 73.458 C 379.528 73.206,379.924 73.000,380.014 73.000 C 380.104 73.000,380.220 72.887,380.273 72.750 C 380.326 72.613,380.447 72.500,380.542 72.500 C 380.866 72.500,383.328 70.280,384.169 69.231 C 387.067 65.613,389.443 61.671,391.087 57.750 C 391.202 57.475,391.415 56.970,391.560 56.629 C 392.987 53.272,392.786 48.361,391.059 44.333 C 388.492 38.351,383.522 33.083,378.833 31.378 C 373.120 29.299,367.041 30.538,360.083 35.197 C 358.892 35.995,357.766 36.783,357.582 36.949 C 357.398 37.114,356.691 37.700,356.009 38.250 C 354.489 39.478,350.383 43.474,349.250 44.830 C 348.096 46.211,347.919 46.126,348.415 44.431 C 348.552 43.965,348.894 42.796,349.176 41.833 C 349.458 40.871,349.843 39.671,350.032 39.167 C 350.221 38.662,350.478 37.969,350.604 37.625 C 351.252 35.857,351.708 34.699,352.918 31.750 C 353.909 29.336,356.203 23.936,356.690 22.875 C 356.952 22.301,357.167 21.800,357.167 21.760 C 357.167 21.719,357.497 20.984,357.901 20.126 C 358.304 19.268,358.832 18.096,359.074 17.522 C 359.316 16.948,359.802 15.865,360.156 15.114 C 361.742 11.746,362.057 11.009,362.544 9.528 L 363.061 7.952 362.767 7.101 C 362.370 5.952,360.954 4.614,359.169 3.698 C 357.352 2.766,357.252 2.778,356.925 3.958 M238.750 6.604 C 233.666 7.181,232.113 7.579,229.188 9.055 C 218.712 14.343,211.012 25.829,209.982 37.705 C 209.369 44.780,211.895 50.341,216.862 52.848 C 217.396 53.117,217.833 53.298,217.833 53.248 C 217.833 53.199,218.064 53.277,218.346 53.423 C 219.523 54.032,223.216 54.069,225.667 53.497 C 228.315 52.878,232.421 51.167,233.513 50.227 C 233.658 50.102,233.832 50.000,233.900 50.000 C 234.025 50.000,235.417 49.080,235.780 48.758 C 235.888 48.662,236.413 48.262,236.947 47.868 C 238.816 46.491,242.385 42.575,243.606 40.562 C 243.774 40.286,243.810 40.328,243.917 40.917 C 244.625 44.797,245.742 46.996,247.660 48.289 C 250.335 50.092,254.858 49.421,257.375 46.848 C 257.902 46.310,258.333 45.979,258.333 46.113 C 258.333 46.756,259.397 48.840,260.100 49.573 C 263.181 52.789,267.250 51.007,270.256 45.125 C 270.647 44.361,270.732 44.352,271.016 45.042 C 272.866 49.543,279.232 51.179,284.625 48.539 C 285.106 48.304,285.500 48.049,285.500 47.972 C 285.500 47.896,285.612 47.833,285.749 47.833 C 285.886 47.833,286.623 47.215,287.386 46.458 C 290.219 43.651,290.745 40.874,289.558 35.000 C 289.233 33.395,288.233 29.044,287.891 27.751 C 287.705 27.048,287.658 26.416,287.731 25.622 C 287.892 23.898,287.624 23.099,286.512 21.989 C 285.598 21.075,283.432 19.667,282.941 19.667 C 282.448 19.667,281.624 21.177,281.326 22.628 C 281.128 23.591,280.905 24.128,280.134 25.500 C 279.649 26.364,278.980 27.585,278.080 29.250 C 276.996 31.256,276.483 32.180,275.983 33.028 C 275.718 33.479,275.500 33.881,275.500 33.921 C 275.500 33.961,275.253 34.389,274.951 34.872 C 274.648 35.355,274.217 36.110,273.992 36.551 C 273.767 36.991,273.438 37.510,273.260 37.703 L 272.937 38.053 272.698 37.693 C 272.549 37.469,272.286 37.333,271.998 37.333 C 271.524 37.333,271.416 37.473,271.159 38.417 C 270.751 39.917,269.336 43.037,268.508 44.265 C 268.228 44.678,268.000 45.043,268.000 45.076 C 268.000 45.158,267.004 46.315,266.494 46.826 C 264.847 48.476,263.579 48.687,263.211 47.373 C 262.367 44.355,263.895 39.232,267.598 32.667 C 268.801 30.533,268.981 30.146,269.180 29.256 C 269.340 28.540,269.338 28.197,269.172 27.604 C 268.736 26.046,264.175 22.422,264.164 23.625 C 264.158 24.352,263.923 24.360,262.641 23.676 C 256.787 20.555,249.483 24.037,245.683 31.759 C 242.912 37.391,242.168 38.670,240.240 41.114 C 239.320 42.282,236.535 45.002,235.665 45.583 C 235.253 45.858,234.892 46.140,234.861 46.208 C 234.831 46.277,234.736 46.333,234.651 46.333 C 234.567 46.333,234.187 46.558,233.808 46.833 C 233.429 47.107,232.736 47.513,232.268 47.734 C 231.248 48.215,229.417 49.027,229.417 48.998 C 229.417 48.986,229.192 49.064,228.917 49.171 C 224.002 51.080,217.727 50.313,216.441 47.647 C 216.380 47.520,216.172 47.154,215.977 46.833 C 213.987 43.545,214.529 35.890,217.129 30.557 C 219.091 26.533,222.786 21.789,225.930 19.256 C 226.381 18.892,226.787 18.549,226.833 18.493 C 226.879 18.437,227.404 18.065,228.000 17.666 C 228.596 17.266,229.108 16.878,229.139 16.803 C 229.169 16.728,229.267 16.667,229.356 16.667 C 229.445 16.667,230.232 16.254,231.105 15.750 C 231.979 15.246,232.760 14.833,232.841 14.833 C 232.989 14.833,233.981 14.430,234.553 14.138 C 235.763 13.519,240.703 13.137,241.190 13.623 C 241.309 13.742,241.128 14.282,240.611 15.356 C 238.340 20.072,238.154 22.286,239.842 24.532 C 240.921 25.967,242.889 27.000,244.547 27.000 C 245.316 27.000,245.416 26.841,245.756 25.083 C 246.096 23.327,247.050 20.140,247.625 18.839 C 248.391 17.107,249.617 14.747,250.224 13.837 C 251.114 12.503,251.092 11.557,250.139 10.271 C 249.757 9.755,249.392 9.333,249.328 9.333 C 249.264 9.333,249.029 9.150,248.805 8.926 C 247.452 7.573,241.771 6.261,238.750 6.604 M180.279 9.090 C 179.074 9.265,177.999 9.545,177.697 9.763 C 177.668 9.784,177.738 10.116,177.854 10.502 C 178.082 11.263,178.196 11.286,179.917 10.914 C 180.192 10.854,180.777 10.748,181.218 10.676 C 181.659 10.605,182.086 10.480,182.167 10.398 C 182.370 10.193,182.166 8.828,181.936 8.854 C 181.834 8.866,181.088 8.972,180.279 9.090 M186.167 9.715 C 186.167 10.557,186.170 10.560,187.557 10.748 C 188.000 10.809,188.525 10.895,188.723 10.939 C 190.218 11.275,190.276 11.260,190.399 10.492 C 190.461 10.100,190.454 9.729,190.381 9.668 C 190.112 9.439,188.873 9.176,187.542 9.066 L 186.167 8.952 186.167 9.715 M172.652 11.805 C 170.206 13.167,170.013 13.387,170.516 14.240 C 170.825 14.763,171.332 15.053,171.334 14.708 C 171.334 14.640,171.747 14.361,172.251 14.089 C 172.754 13.817,173.167 13.536,173.167 13.464 C 173.167 13.392,173.260 13.333,173.375 13.333 C 173.490 13.332,173.796 13.162,174.056 12.954 L 174.528 12.576 174.246 11.871 C 173.912 11.037,174.023 11.041,172.652 11.805 M194.017 11.838 L 193.667 12.510 195.292 13.558 C 196.185 14.135,197.001 14.657,197.105 14.717 C 197.425 14.906,198.232 13.529,197.979 13.225 C 197.737 12.933,194.780 11.167,194.533 11.167 C 194.442 11.167,194.209 11.469,194.017 11.838 M183.914 12.282 C 183.773 12.620,183.614 13.070,183.560 13.282 C 183.507 13.494,183.359 13.667,183.232 13.667 C 183.096 13.667,183.000 13.839,183.000 14.083 C 183.000 14.343,182.906 14.500,182.750 14.500 C 182.575 14.500,182.500 14.676,182.500 15.083 C 182.500 15.512,182.428 15.667,182.228 15.667 C 182.010 15.667,181.975 15.783,182.052 16.258 C 182.140 16.801,182.119 16.841,181.800 16.739 C 181.476 16.636,181.457 16.677,181.543 17.314 C 181.595 17.705,181.570 17.960,181.484 17.907 C 181.401 17.856,181.333 18.118,181.333 18.490 C 181.333 18.883,181.254 19.167,181.145 19.167 C 181.021 19.167,180.987 19.396,181.046 19.833 C 181.095 20.200,181.067 20.500,180.984 20.500 C 180.901 20.500,180.833 21.025,180.833 21.667 C 180.833 22.333,180.762 22.833,180.667 22.833 C 180.449 22.833,180.453 23.434,180.673 23.844 C 180.811 24.102,180.790 24.167,180.571 24.167 C 180.355 24.167,180.322 24.264,180.413 24.625 C 180.602 25.377,180.634 26.570,180.470 26.777 C 180.374 26.899,180.408 27.190,180.562 27.559 C 180.738 27.979,180.754 28.165,180.619 28.210 C 180.478 28.257,180.482 28.448,180.631 28.945 C 180.741 29.315,180.843 30.135,180.855 30.767 C 180.868 31.399,180.980 32.329,181.104 32.833 C 181.228 33.337,181.362 34.050,181.402 34.417 C 181.441 34.783,181.807 36.058,182.215 37.250 C 182.622 38.442,183.041 39.867,183.146 40.417 C 183.250 40.967,183.381 41.604,183.437 41.833 C 183.534 42.232,183.528 42.235,183.305 41.917 C 182.775 41.160,182.013 38.716,181.655 36.625 C 181.549 36.006,181.404 35.500,181.334 35.500 C 181.263 35.500,181.167 35.331,181.119 35.125 C 180.977 34.506,180.350 32.948,180.202 32.845 C 180.127 32.793,179.966 32.507,179.846 32.210 C 179.726 31.914,179.568 31.708,179.495 31.753 C 179.423 31.798,179.311 31.529,179.248 31.156 C 179.185 30.782,179.028 30.436,178.900 30.387 C 178.772 30.338,178.667 30.090,178.667 29.836 C 178.667 29.420,178.194 28.755,178.147 29.105 C 178.136 29.185,178.076 29.025,178.013 28.750 C 177.950 28.475,177.809 28.269,177.699 28.292 C 177.590 28.315,177.500 28.189,177.500 28.014 C 177.500 27.528,177.322 27.167,177.084 27.167 C 176.966 27.167,176.821 26.972,176.761 26.735 C 176.688 26.442,176.573 26.334,176.405 26.398 C 176.231 26.465,176.128 26.350,176.061 26.011 C 176.005 25.732,175.832 25.495,175.649 25.447 C 175.466 25.399,175.333 25.218,175.333 25.016 C 175.333 24.824,175.228 24.667,175.100 24.667 C 174.971 24.667,174.786 24.436,174.687 24.154 C 174.584 23.857,174.433 23.688,174.329 23.753 C 174.225 23.817,174.066 23.644,173.953 23.345 C 173.838 23.040,173.670 22.860,173.546 22.908 C 173.429 22.953,173.333 22.931,173.333 22.860 C 173.333 22.470,172.862 22.102,172.621 22.302 C 172.413 22.475,172.354 22.439,172.266 22.088 C 172.200 21.825,172.043 21.667,171.848 21.667 C 171.676 21.667,171.492 21.553,171.439 21.414 C 171.385 21.275,171.152 21.090,170.921 21.002 C 170.689 20.914,170.500 20.756,170.500 20.651 C 170.500 20.546,170.358 20.498,170.181 20.545 C 169.967 20.601,169.681 20.442,169.315 20.064 C 168.468 19.191,168.120 19.671,168.825 20.740 C 169.002 21.009,169.110 21.290,169.064 21.365 C 169.018 21.439,169.040 21.594,169.113 21.708 C 169.233 21.897,169.301 22.362,169.337 23.235 C 169.344 23.410,169.424 23.691,169.514 23.860 C 169.625 24.066,169.622 24.167,169.506 24.167 C 169.223 24.167,169.310 24.643,169.656 24.990 C 169.865 25.199,169.911 25.335,169.785 25.377 C 169.650 25.422,169.678 25.576,169.879 25.882 C 170.037 26.124,170.167 26.477,170.167 26.666 C 170.167 26.855,170.279 27.054,170.417 27.106 C 170.554 27.159,170.667 27.384,170.667 27.606 C 170.667 27.829,170.779 28.054,170.917 28.106 C 171.054 28.159,171.167 28.377,171.167 28.591 C 171.167 28.805,171.242 29.027,171.333 29.083 C 171.425 29.140,171.500 29.332,171.500 29.510 C 171.500 29.688,171.650 29.983,171.833 30.167 C 172.017 30.350,172.167 30.603,172.167 30.730 C 172.167 30.856,172.279 31.053,172.417 31.167 C 172.554 31.281,172.667 31.466,172.667 31.578 C 172.667 31.690,172.817 31.917,173.000 32.083 C 173.183 32.249,173.333 32.505,173.333 32.652 C 173.333 32.799,173.483 33.013,173.667 33.128 C 173.850 33.242,174.000 33.442,174.000 33.571 C 174.000 33.700,174.225 34.017,174.500 34.277 C 174.775 34.537,175.000 34.837,175.000 34.946 C 175.000 35.054,175.188 35.290,175.417 35.470 C 175.646 35.650,175.833 35.881,175.833 35.982 C 175.833 36.084,176.246 36.589,176.750 37.105 C 177.254 37.622,177.667 38.091,177.668 38.147 C 177.668 38.204,177.919 38.420,178.225 38.629 C 178.803 39.022,181.167 41.281,181.750 41.996 C 181.939 42.229,181.721 42.109,181.245 41.718 C 180.783 41.339,180.227 40.797,180.009 40.511 C 179.619 40.003,177.659 38.345,177.167 38.108 C 176.635 37.851,176.229 37.569,175.866 37.202 C 175.658 36.993,175.426 36.860,175.350 36.907 C 175.273 36.954,175.077 36.844,174.913 36.663 C 174.749 36.482,174.477 36.333,174.308 36.333 C 174.138 36.333,174.000 36.258,174.000 36.167 C 174.000 36.075,173.897 36.000,173.770 36.000 C 173.644 36.000,173.445 35.885,173.329 35.744 C 173.212 35.604,173.035 35.516,172.935 35.550 C 172.835 35.583,172.656 35.514,172.538 35.395 C 172.420 35.277,172.214 35.223,172.080 35.274 C 171.941 35.328,171.790 35.248,171.730 35.091 C 171.671 34.939,171.523 34.853,171.400 34.900 C 171.278 34.947,171.133 34.914,171.079 34.826 C 171.025 34.738,170.802 34.667,170.583 34.667 C 170.365 34.667,170.137 34.587,170.076 34.489 C 170.016 34.391,169.867 34.349,169.745 34.395 C 169.624 34.442,169.432 34.369,169.319 34.233 C 169.206 34.096,169.003 34.027,168.869 34.079 C 168.734 34.130,168.509 34.077,168.368 33.961 C 168.166 33.794,168.098 33.793,168.043 33.957 C 167.990 34.113,167.889 34.119,167.632 33.981 C 167.378 33.846,167.259 33.850,167.166 34.001 C 167.098 34.112,166.999 34.134,166.947 34.050 C 166.896 33.966,166.211 33.889,165.427 33.878 C 163.810 33.856,163.556 34.083,164.647 34.575 C 165.003 34.735,165.394 35.052,165.516 35.280 C 165.637 35.507,165.871 35.764,166.035 35.852 C 166.199 35.940,166.333 36.122,166.333 36.256 C 166.333 36.390,166.408 36.500,166.500 36.500 C 166.592 36.500,166.667 36.595,166.667 36.710 C 166.667 36.826,166.902 37.107,167.189 37.335 C 167.477 37.563,167.831 37.881,167.977 38.042 C 168.122 38.202,168.302 38.333,168.377 38.333 C 168.508 38.333,168.719 38.486,169.254 38.969 C 169.388 39.089,169.647 39.198,169.832 39.212 C 170.016 39.226,170.167 39.334,170.167 39.452 C 170.167 39.570,170.282 39.667,170.422 39.667 C 170.562 39.667,170.720 39.779,170.773 39.917 C 170.826 40.054,171.048 40.167,171.268 40.167 C 171.487 40.167,171.667 40.242,171.667 40.333 C 171.667 40.425,171.817 40.500,172.000 40.500 C 172.185 40.500,172.333 40.611,172.333 40.750 C 172.333 40.915,172.498 41.000,172.816 41.000 C 173.109 41.000,173.339 41.107,173.403 41.274 C 173.461 41.424,173.551 41.504,173.604 41.451 C 173.657 41.398,173.899 41.431,174.142 41.525 C 174.385 41.619,174.733 41.726,174.916 41.763 C 175.099 41.800,175.274 41.906,175.305 41.998 C 175.336 42.091,175.617 42.167,175.931 42.167 C 176.244 42.167,176.500 42.235,176.500 42.319 C 176.500 42.403,177.081 42.604,177.792 42.765 C 179.286 43.105,179.649 43.304,178.673 43.249 C 178.299 43.228,177.959 43.265,177.917 43.333 C 177.875 43.400,177.644 43.433,177.403 43.407 C 176.770 43.337,174.866 43.765,174.050 44.161 C 173.665 44.347,173.233 44.500,173.091 44.500 C 172.949 44.500,172.833 44.575,172.833 44.667 C 172.833 44.758,172.730 44.833,172.604 44.833 C 172.478 44.833,172.089 45.096,171.738 45.417 C 171.388 45.737,171.041 46.000,170.967 46.000 C 170.894 46.000,170.833 46.104,170.833 46.231 C 170.833 46.357,170.683 46.500,170.500 46.548 C 170.296 46.602,170.167 46.776,170.167 46.996 C 170.167 47.294,170.231 47.335,170.542 47.235 C 170.748 47.169,170.992 47.124,171.083 47.135 C 171.940 47.241,172.413 47.359,172.491 47.485 C 172.684 47.797,176.800 47.344,177.292 46.957 C 177.406 46.866,177.500 46.834,177.500 46.884 C 177.500 46.934,177.964 46.793,178.532 46.571 C 179.813 46.069,179.810 46.069,179.258 46.621 C 178.645 47.234,178.052 48.273,177.758 49.251 C 177.450 50.275,177.522 50.373,178.303 49.996 C 178.653 49.827,179.147 49.636,179.400 49.573 C 179.943 49.436,182.237 47.251,182.406 46.708 C 182.470 46.502,182.592 46.333,182.678 46.333 C 182.763 46.333,182.833 46.235,182.833 46.115 C 182.833 45.995,182.945 45.751,183.082 45.574 C 183.308 45.279,183.321 45.333,183.229 46.181 C 183.062 47.714,183.566 50.170,184.048 50.164 C 184.640 50.157,184.701 49.909,184.403 48.732 C 184.095 47.515,183.996 45.630,184.213 45.099 C 184.342 44.784,185.000 45.744,185.000 46.247 C 185.000 46.688,186.502 48.659,187.622 49.687 C 188.047 50.077,189.216 50.632,189.443 50.551 C 189.549 50.513,189.685 50.561,189.745 50.658 C 189.902 50.913,190.333 50.873,190.333 50.604 C 190.333 50.477,190.221 50.281,190.083 50.167 C 189.946 50.053,189.833 49.774,189.833 49.547 C 189.833 49.019,189.436 48.307,188.530 47.208 C 188.133 46.727,187.884 46.333,187.977 46.333 C 188.071 46.333,188.197 46.413,188.257 46.511 C 188.318 46.609,188.463 46.653,188.580 46.608 C 188.697 46.563,188.858 46.583,188.938 46.652 C 189.369 47.026,191.328 47.500,192.755 47.575 C 193.033 47.590,193.351 47.658,193.463 47.727 C 193.580 47.799,193.667 47.769,193.667 47.656 C 193.667 47.509,193.730 47.512,193.917 47.667 C 194.065 47.789,194.167 47.804,194.167 47.703 C 194.167 47.608,194.317 47.570,194.500 47.618 C 194.683 47.666,194.833 47.641,194.834 47.561 C 194.834 47.482,195.111 47.397,195.450 47.372 C 195.789 47.348,196.117 47.246,196.179 47.146 C 196.260 47.015,196.324 47.016,196.406 47.149 C 196.551 47.383,197.167 47.391,197.167 47.158 C 197.167 46.919,196.095 45.833,195.858 45.833 C 195.753 45.833,195.667 45.748,195.667 45.645 C 195.667 45.397,195.012 44.833,194.724 44.833 C 194.601 44.833,194.500 44.750,194.500 44.647 C 194.500 44.543,194.353 44.500,194.167 44.548 C 193.983 44.596,193.833 44.567,193.833 44.484 C 193.833 44.401,193.732 44.333,193.609 44.333 C 193.486 44.333,193.167 44.225,192.901 44.093 C 192.634 43.961,192.117 43.817,191.750 43.773 C 191.383 43.728,190.964 43.645,190.818 43.588 C 190.526 43.474,189.612 43.376,188.592 43.350 C 187.397 43.320,188.910 42.694,190.312 42.639 C 190.691 42.624,191.000 42.549,191.000 42.473 C 191.000 42.396,191.183 42.333,191.407 42.333 C 191.631 42.333,191.860 42.258,191.917 42.167 C 191.973 42.075,192.240 42.000,192.510 42.000 C 192.834 42.000,193.000 41.916,193.000 41.750 C 193.000 41.584,193.166 41.500,193.490 41.500 C 193.760 41.500,194.027 41.425,194.083 41.333 C 194.140 41.242,194.365 41.167,194.583 41.167 C 194.802 41.167,195.023 41.097,195.075 41.013 C 195.128 40.928,195.395 40.810,195.669 40.750 C 195.943 40.689,196.167 40.571,196.167 40.487 C 196.167 40.402,196.317 40.333,196.500 40.333 C 196.683 40.333,196.833 40.266,196.833 40.185 C 196.833 40.103,197.021 39.989,197.250 39.932 C 197.479 39.874,197.667 39.753,197.667 39.663 C 197.667 39.574,197.782 39.500,197.922 39.500 C 198.062 39.500,198.220 39.388,198.273 39.250 C 198.326 39.113,198.470 39.000,198.593 39.000 C 198.716 39.000,198.877 38.906,198.950 38.792 C 199.100 38.558,199.564 38.246,200.125 38.004 C 200.331 37.915,200.500 37.765,200.500 37.671 C 200.500 37.577,200.610 37.500,200.744 37.500 C 200.878 37.500,201.069 37.350,201.167 37.167 C 201.265 36.983,201.455 36.833,201.589 36.833 C 201.723 36.833,201.833 36.683,201.833 36.500 C 201.833 36.317,201.908 36.167,202.000 36.167 C 202.092 36.167,202.167 36.096,202.167 36.010 C 202.167 35.760,203.597 34.378,203.982 34.256 C 204.990 33.936,204.317 33.680,202.500 33.691 C 201.244 33.699,200.666 33.762,200.664 33.893 C 200.663 33.998,200.590 33.971,200.503 33.833 C 200.372 33.629,200.283 33.621,200.012 33.789 C 199.829 33.902,199.572 33.953,199.440 33.903 C 199.308 33.852,199.151 33.891,199.090 33.989 C 199.030 34.087,198.859 34.167,198.712 34.167 C 198.564 34.167,198.306 34.291,198.138 34.442 C 197.916 34.643,197.833 34.659,197.833 34.500 C 197.833 34.341,197.750 34.357,197.528 34.558 C 197.360 34.710,197.175 34.786,197.116 34.727 C 197.056 34.668,196.884 34.722,196.731 34.849 C 196.579 34.975,196.371 35.084,196.269 35.090 C 196.097 35.101,195.752 35.236,194.792 35.669 C 194.585 35.762,194.192 35.987,193.917 36.169 C 193.642 36.350,193.210 36.582,192.958 36.682 C 192.706 36.783,192.500 36.935,192.500 37.020 C 192.500 37.105,192.311 37.247,192.079 37.335 C 191.848 37.423,191.615 37.608,191.562 37.747 C 191.509 37.885,191.393 37.953,191.304 37.899 C 191.216 37.844,191.017 37.913,190.863 38.052 C 190.709 38.191,190.340 38.530,190.042 38.806 C 189.744 39.082,189.500 39.279,189.500 39.243 C 189.500 39.207,188.766 39.915,187.868 40.815 C 185.978 42.710,185.043 43.371,186.097 42.066 C 187.047 40.889,188.813 39.157,189.627 38.602 C 190.016 38.338,190.333 38.061,190.333 37.988 C 190.333 37.915,190.736 37.456,191.228 36.969 C 191.720 36.482,192.176 35.915,192.240 35.708 C 192.304 35.502,192.501 35.255,192.678 35.161 C 192.855 35.066,193.000 34.857,193.000 34.697 C 193.000 34.536,193.225 34.272,193.500 34.110 C 193.778 33.946,194.000 33.673,194.000 33.496 C 194.000 33.322,194.142 33.102,194.316 33.009 C 194.489 32.916,194.717 32.633,194.821 32.379 C 195.081 31.746,195.389 31.232,195.750 30.833 C 195.917 30.649,196.008 30.453,195.953 30.398 C 195.898 30.343,196.001 30.140,196.181 29.946 C 196.361 29.753,196.473 29.504,196.431 29.393 C 196.388 29.282,196.461 29.101,196.593 28.992 C 196.725 28.882,196.833 28.622,196.833 28.414 C 196.833 28.206,196.946 27.992,197.083 27.940 C 197.221 27.887,197.333 27.701,197.333 27.526 C 197.333 27.351,197.446 27.114,197.583 27.000 C 197.721 26.886,197.833 26.623,197.833 26.417 C 197.833 26.210,197.949 25.945,198.090 25.827 C 198.232 25.710,198.320 25.495,198.287 25.349 C 198.253 25.203,198.332 24.867,198.462 24.603 C 198.643 24.235,198.651 24.093,198.498 23.999 C 198.353 23.909,198.349 23.843,198.484 23.760 C 198.586 23.697,198.655 23.441,198.636 23.193 C 198.617 22.944,198.669 22.631,198.752 22.497 C 198.834 22.364,198.920 21.936,198.943 21.547 C 198.968 21.118,199.151 20.593,199.409 20.214 C 200.111 19.181,199.759 18.970,198.775 19.833 C 198.462 20.108,198.094 20.333,197.957 20.333 C 197.820 20.333,197.614 20.446,197.500 20.583 C 197.386 20.721,197.188 20.833,197.059 20.833 C 196.931 20.833,196.741 21.020,196.637 21.249 C 196.490 21.572,196.398 21.623,196.223 21.477 C 196.045 21.330,195.959 21.402,195.814 21.818 C 195.645 22.303,195.612 22.322,195.413 22.050 C 195.211 21.774,195.181 21.786,194.988 22.210 C 194.873 22.461,194.648 22.667,194.486 22.667 C 194.296 22.667,194.155 22.842,194.083 23.168 C 194.022 23.444,193.903 23.627,193.818 23.574 C 193.733 23.521,193.533 23.708,193.373 23.988 C 193.214 24.269,192.995 24.498,192.886 24.499 C 192.778 24.500,192.644 24.643,192.588 24.818 C 192.533 24.993,192.378 25.178,192.244 25.229 C 192.110 25.281,192.000 25.513,192.000 25.745 C 192.000 26.057,191.913 26.167,191.662 26.167 C 191.422 26.167,191.297 26.308,191.226 26.662 C 191.170 26.941,190.990 27.200,190.813 27.256 C 190.641 27.311,190.500 27.463,190.500 27.595 C 190.500 27.726,190.369 27.978,190.208 28.155 C 189.579 28.848,189.474 29.030,189.384 29.588 C 189.332 29.906,189.192 30.167,189.072 30.167 C 188.941 30.167,188.809 30.467,188.742 30.915 C 188.680 31.327,188.571 31.627,188.501 31.584 C 188.430 31.540,188.274 31.747,188.154 32.044 C 188.034 32.341,187.876 32.625,187.802 32.676 C 187.729 32.727,187.474 33.327,187.236 34.009 C 186.998 34.692,186.746 35.325,186.677 35.417 C 186.607 35.508,186.455 36.071,186.340 36.667 C 185.977 38.540,185.323 40.612,184.711 41.833 C 184.438 42.379,184.446 42.135,184.753 40.645 C 185.275 38.115,185.549 37.054,185.945 36.030 C 186.170 35.451,186.321 34.888,186.283 34.780 C 186.244 34.672,186.287 34.437,186.380 34.258 C 186.472 34.079,186.578 33.629,186.614 33.258 C 186.734 32.044,186.834 31.097,186.934 30.250 C 187.174 28.206,187.316 24.158,187.143 24.264 C 187.082 24.302,187.072 24.033,187.121 23.667 C 187.177 23.249,187.144 23.000,187.032 23.000 C 186.922 23.000,186.890 22.779,186.949 22.417 C 187.001 22.096,186.978 21.833,186.897 21.833 C 186.816 21.832,186.732 21.289,186.709 20.625 C 186.687 19.961,186.602 19.395,186.520 19.368 C 186.438 19.340,186.430 19.061,186.502 18.742 C 186.629 18.179,186.488 17.885,186.183 18.074 C 186.096 18.127,186.072 17.869,186.125 17.474 C 186.211 16.832,186.192 16.788,185.866 16.873 C 185.555 16.954,185.526 16.910,185.611 16.485 C 185.681 16.135,185.634 15.977,185.437 15.901 C 185.261 15.834,185.167 15.600,185.167 15.232 C 185.167 14.921,185.095 14.667,185.008 14.667 C 184.771 14.667,184.502 13.537,184.501 12.542 C 184.500 11.517,184.275 11.417,183.914 12.282 M200.615 16.634 C 200.368 16.891,200.167 17.183,200.167 17.282 C 200.167 17.457,201.468 19.320,201.948 19.833 C 202.077 19.971,202.278 20.224,202.395 20.395 C 202.627 20.734,203.826 20.176,203.831 19.727 C 203.835 19.346,201.470 16.167,201.182 16.167 C 201.116 16.167,200.861 16.377,200.615 16.634 M166.125 17.327 C 165.690 17.863,165.333 18.384,165.333 18.484 C 165.333 18.584,165.267 18.667,165.186 18.667 C 165.104 18.667,164.907 18.943,164.746 19.281 L 164.455 19.895 164.936 20.280 C 165.598 20.810,165.650 20.791,166.512 19.708 C 168.388 17.352,168.395 17.333,167.741 16.727 C 167.148 16.177,167.020 16.224,166.125 17.327 M29.500 18.450 C 30.606 18.719,33.253 19.939,34.750 20.871 C 35.907 21.591,38.871 23.536,39.131 23.744 C 39.249 23.839,39.436 23.995,39.547 24.092 C 39.659 24.188,40.200 24.595,40.750 24.997 C 41.300 25.398,41.787 25.773,41.833 25.831 C 41.879 25.888,42.779 26.588,43.833 27.387 C 44.887 28.186,45.917 28.981,46.121 29.153 C 46.324 29.326,46.981 29.826,47.579 30.266 C 48.953 31.274,48.960 31.238,46.649 35.196 C 46.292 35.808,46.000 36.349,46.000 36.399 C 46.000 36.497,44.362 39.299,44.141 39.580 C 44.067 39.673,43.642 40.237,43.196 40.833 C 41.588 42.983,37.069 47.000,36.258 47.000 C 36.208 47.000,35.699 47.211,35.125 47.469 C 31.080 49.291,24.872 49.448,20.750 47.833 C 16.073 46.000,13.277 43.107,12.133 38.917 C 11.635 37.093,11.590 31.850,12.057 30.162 C 12.717 27.777,12.822 27.480,13.616 25.750 C 16.190 20.139,23.194 16.920,29.500 18.450 M162.360 24.042 C 161.400 26.485,161.309 27.927,162.105 28.076 C 162.864 28.219,162.883 28.196,163.331 26.583 C 163.535 25.850,163.769 25.033,163.851 24.767 C 164.071 24.052,164.051 24.005,163.422 23.741 C 162.637 23.414,162.603 23.423,162.360 24.042 M204.708 23.727 C 204.264 23.947,204.256 24.024,204.582 25.000 C 204.720 25.412,204.991 26.294,205.183 26.958 C 205.375 27.623,205.573 28.167,205.622 28.167 C 205.980 28.167,206.999 27.745,206.996 27.599 C 206.989 27.254,206.329 24.915,206.040 24.209 C 205.732 23.458,205.454 23.357,204.708 23.727 M89.529 28.276 C 91.397 29.967,86.585 34.908,82.859 35.123 C 81.448 35.205,81.440 35.182,82.353 33.634 C 82.617 33.186,82.833 32.785,82.833 32.744 C 82.833 32.609,84.075 30.889,84.609 30.285 C 85.552 29.220,87.081 28.301,88.138 28.165 C 88.658 28.098,89.115 28.034,89.154 28.022 C 89.192 28.010,89.361 28.124,89.529 28.276 M259.333 29.376 C 260.445 29.989,261.043 30.627,260.935 31.083 C 260.864 31.385,260.086 33.641,259.423 35.466 C 258.920 36.851,258.365 39.267,258.171 40.917 C 258.063 41.833,257.942 42.817,257.901 43.103 C 257.580 45.351,252.010 47.435,249.917 46.091 C 247.188 44.338,246.831 39.555,249.095 35.092 C 249.822 33.657,252.752 30.333,253.289 30.333 C 253.382 30.333,253.555 30.218,253.673 30.076 C 254.729 28.804,257.644 28.443,259.333 29.376 M282.580 31.917 C 283.113 33.567,283.756 35.554,284.009 36.333 C 285.114 39.743,285.033 41.991,283.758 43.266 C 283.632 43.392,283.504 43.552,283.473 43.622 C 283.237 44.158,281.313 45.179,279.769 45.590 C 277.377 46.226,274.425 44.819,273.240 42.479 C 272.345 40.714,273.521 39.791,278.250 38.545 C 279.411 38.239,279.417 38.235,279.417 37.661 C 279.417 36.993,279.308 36.976,276.674 37.235 L 275.266 37.374 275.552 36.979 C 275.709 36.761,275.888 36.474,275.950 36.341 C 276.012 36.207,276.157 35.982,276.274 35.841 C 276.574 35.476,278.691 32.549,280.167 30.460 C 280.854 29.487,281.460 28.741,281.514 28.803 C 281.567 28.866,282.047 30.267,282.580 31.917 M332.667 29.186 C 332.987 29.356,333.560 29.778,333.940 30.123 L 334.630 30.750 334.335 31.583 C 332.465 36.862,331.667 39.909,331.667 41.766 C 331.667 45.574,325.521 48.126,322.786 45.453 C 319.898 42.630,320.940 36.090,324.917 32.078 C 327.887 29.080,330.575 28.078,332.667 29.186 M161.000 32.803 C 161.000 33.688,161.218 35.295,161.442 36.057 C 161.517 36.312,161.636 36.345,162.141 36.253 C 162.991 36.097,162.983 36.123,162.737 34.083 C 162.616 33.075,162.512 32.156,162.508 32.042 C 162.503 31.907,162.235 31.833,161.750 31.833 L 161.000 31.833 161.000 32.803 M205.666 33.921 C 205.424 36.296,205.371 36.094,206.273 36.242 L 206.963 36.356 207.066 35.637 C 207.123 35.241,207.215 34.223,207.271 33.375 L 207.373 31.833 206.626 31.833 L 205.879 31.833 205.666 33.921 M204.196 40.056 C 202.682 42.598,202.448 43.568,203.252 43.951 C 203.970 44.294,203.940 44.322,204.991 42.270 C 206.007 40.284,206.016 40.161,205.170 39.806 L 204.509 39.529 204.196 40.056 M163.208 39.874 C 162.608 40.067,162.521 40.407,162.887 41.141 C 164.568 44.521,164.463 44.404,165.349 43.881 C 165.616 43.723,165.833 43.542,165.833 43.477 C 165.833 43.232,163.993 39.667,163.874 39.684 C 163.806 39.693,163.506 39.779,163.208 39.874 M145.479 43.729 C 143.767 45.343,140.780 46.489,140.177 45.763 C 139.347 44.762,142.970 42.928,145.917 42.857 C 146.414 42.846,146.413 42.849,145.479 43.729 M198.654 47.819 L 197.088 49.281 197.502 49.890 C 198.045 50.686,198.075 50.679,199.516 49.437 C 201.556 47.678,201.662 47.457,200.777 46.782 L 200.220 46.357 198.654 47.819 M167.461 47.002 L 166.917 47.503 168.464 49.002 C 170.182 50.666,170.283 50.709,170.802 50.007 C 171.313 49.316,171.267 49.123,170.430 48.437 C 170.025 48.105,169.381 47.533,169.000 47.167 C 168.169 46.368,168.151 46.366,167.461 47.002 M193.250 51.419 C 192.975 51.545,192.126 51.889,191.363 52.183 C 190.098 52.671,189.985 52.752,190.073 53.102 C 190.195 53.586,190.477 54.334,190.538 54.331 C 190.995 54.310,193.687 53.270,194.263 52.893 L 194.641 52.645 194.330 51.951 C 193.967 51.141,193.913 51.114,193.250 51.419 M174.125 51.848 C 173.693 52.606,173.744 52.708,174.792 53.202 C 175.654 53.608,177.866 54.372,177.926 54.285 C 178.014 54.159,178.333 53.079,178.333 52.912 C 178.333 52.749,177.587 52.318,177.167 52.238 C 177.121 52.229,176.858 52.129,176.583 52.014 C 174.670 51.219,174.490 51.207,174.125 51.848 M182.094 53.750 C 181.779 54.925,181.838 54.979,183.750 55.254 C 184.258 55.327,186.301 55.088,186.451 54.938 C 186.496 54.893,186.482 54.555,186.420 54.187 L 186.307 53.519 184.245 53.468 C 182.302 53.420,182.178 53.436,182.094 53.750 " stroke="none" fill="#3c3c3c" fill-rule="evenodd"></path><path id="path1" d="M183.298 53.457 C 183.875 53.490,184.775 53.489,185.298 53.456 C 185.822 53.423,185.350 53.397,184.250 53.397 C 183.150 53.397,182.722 53.424,183.298 53.457 M316.367 83.624 C 317.164 83.654,318.514 83.655,319.367 83.624 C 320.219 83.594,319.567 83.569,317.917 83.569 C 316.267 83.569,315.569 83.593,316.367 83.624 " stroke="none" fill="#403c3c" fill-rule="evenodd"></path><path id="path2" d="M183.298 53.457 C 183.875 53.490,184.775 53.489,185.298 53.456 C 185.822 53.423,185.350 53.397,184.250 53.397 C 183.150 53.397,182.722 53.424,183.298 53.457 M316.367 83.624 C 317.164 83.654,318.514 83.655,319.367 83.624 C 320.219 83.594,319.567 83.569,317.917 83.569 C 316.267 83.569,315.569 83.593,316.367 83.624 " stroke="none" fill="#403c3c" fill-rule="evenodd"></path><path id="path3" d="M183.298 53.457 C 183.875 53.490,184.775 53.489,185.298 53.456 C 185.822 53.423,185.350 53.397,184.250 53.397 C 183.150 53.397,182.722 53.424,183.298 53.457 M316.367 83.624 C 317.164 83.654,318.514 83.655,319.367 83.624 C 320.219 83.594,319.567 83.569,317.917 83.569 C 316.267 83.569,315.569 83.593,316.367 83.624 " stroke="none" fill="#403c3c" fill-rule="evenodd"></path><path id="path4" d="M183.298 53.457 C 183.875 53.490,184.775 53.489,185.298 53.456 C 185.822 53.423,185.350 53.397,184.250 53.397 C 183.150 53.397,182.722 53.424,183.298 53.457 M316.367 83.624 C 317.164 83.654,318.514 83.655,319.367 83.624 C 320.219 83.594,319.567 83.569,317.917 83.569 C 316.267 83.569,315.569 83.593,316.367 83.624 " stroke="none" fill="#403c3c" fill-rule="evenodd"></path></g></svg>